P2
64 128
255
157 163 174 170 165 159 151 143 134 122 106 89 71 53 36 22 16 13 10 8 8 7 6 6 7 8 8 8 8 8 8 7 8 10 11 12 16 25 43 70 95 101 89 75 68 67 68 66 57 42 26 14 9 9 10 12 12 13 13 14 16 21 24 25 
134 147 171 168 164 158 152 145 137 128 114 97 80 61 43 27 19 15 12 9 9 8 7 7 8 8 8 8 8 8 8 8 8 10 11 13 19 31 50 75 96 99 87 75 71 73 75 72 61 45 29 16 10 9 11 12 13 13 13 14 17 22 24 24 
90 115 165 163 160 157 153 148 144 137 127 113 97 78 57 39 27 20 15 12 11 10 9 8 9 9 9 9 9 9 9 9 9 11 12 15 24 41 61 82 96 96 85 77 79 84 84 79 66 50 32 19 12 11 12 13 14 13 13 15 20 24 22 20 
85 109 157 156 155 155 154 151 149 146 139 128 114 96 74 53 37 27 19 14 12 11 10 9 9 9 9 9 10 10 10 10 11 12 14 19 30 49 70 88 97 94 85 82 86 90 88 82 68 50 31 19 12 12 13 13 14 14 15 18 23 23 19 16 
80 102 148 147 149 151 153 153 153 151 148 140 129 112 91 69 50 36 24 17 13 12 10 9 9 10 10 10 11 11 12 12 12 14 17 25 38 56 74 89 99 97 89 85 89 93 91 83 68 49 30 19 13 12 13 13 13 15 19 24 25 21 16 13 
75 95 136 138 141 147 152 155 157 157 155 150 140 125 105 84 63 46 31 21 15 13 11 10 10 10 11 11 12 12 13 14 14 17 23 35 50 63 74 88 103 104 95 87 91 97 95 87 73 56 38 25 17 15 14 14 13 18 24 28 25 18 14 12 
69 88 125 128 134 143 151 158 161 163 162 157 148 134 116 95 74 56 38 25 17 14 13 12 12 11 11 12 13 14 14 15 15 19 30 47 64 71 74 85 106 111 103 91 93 100 100 94 86 73 57 39 26 20 17 16 16 22 29 31 24 16 14 15 
66 83 119 123 131 142 153 162 166 169 168 164 155 142 125 105 84 65 45 30 20 15 14 14 13 13 14 14 15 14 16 16 18 25 40 59 73 75 74 84 106 117 110 96 94 98 100 97 94 87 73 56 40 30 23 19 21 28 32 29 21 15 15 16 
67 85 120 124 133 146 158 167 172 174 174 170 162 149 133 114 92 73 53 36 23 17 15 15 15 15 16 16 18 16 19 19 23 32 48 66 75 73 73 83 105 118 114 100 95 96 98 97 97 94 83 65 47 34 24 21 25 32 32 26 19 15 15 16 
73 92 130 133 142 154 166 174 178 180 180 176 169 157 140 122 100 80 59 41 27 19 15 16 17 18 21 21 24 21 25 26 32 42 57 69 71 68 69 80 102 118 117 105 97 95 97 94 93 90 82 66 49 35 26 26 32 35 30 22 18 16 16 15 
82 103 146 148 155 165 175 181 185 186 185 182 174 162 146 127 106 85 62 44 30 21 17 18 21 24 28 29 33 32 37 40 46 54 63 69 67 62 63 74 94 114 119 112 102 97 96 93 92 87 78 62 47 35 31 36 38 35 25 19 17 17 16 16 
90 114 162 164 169 176 183 188 191 191 190 186 177 165 149 131 109 88 65 47 33 25 22 24 32 37 43 44 49 49 57 62 68 72 72 69 62 56 57 65 84 107 118 115 103 95 94 92 90 84 75 62 49 42 43 46 42 32 22 18 17 18 18 17 
97 123 176 177 180 184 189 193 195 195 193 189 179 167 151 133 112 90 67 50 38 32 31 38 50 59 67 68 74 75 84 90 96 96 88 75 62 55 56 63 80 103 116 115 104 94 93 93 91 86 77 65 54 51 54 52 42 30 23 19 19 19 19 18 
102 130 186 186 188 190 193 196 197 198 195 190 180 166 150 132 112 92 70 54 45 42 46 58 76 89 99 100 106 106 115 119 124 122 112 95 77 67 66 73 86 104 114 114 105 97 95 96 95 91 83 73 64 63 64 57 44 34 28 23 22 21 20 19 
105 134 192 192 193 194 195 197 198 198 195 188 177 164 147 129 110 91 71 58 52 54 64 82 104 119 130 132 138 137 142 143 146 145 138 125 107 92 87 91 98 109 110 111 106 101 99 99 99 98 91 84 80 81 76 64 51 42 34 28 25 23 22 20 
107 136 195 196 196 195 196 197 197 196 192 185 173 158 140 122 104 87 70 60 60 69 86 108 131 145 154 158 162 160 161 158 158 158 157 151 139 123 112 112 112 116 111 113 110 107 105 103 104 102 100 100 99 99 89 78 63 52 40 33 28 26 23 21 
106 136 196 196 196 194 193 193 193 191 187 180 169 154 137 122 107 92 78 72 76 88 107 130 149 162 170 173 176 174 172 167 166 166 168 167 160 146 133 128 123 123 117 121 120 118 116 112 111 107 108 112 112 110 101 94 79 65 49 38 30 26 24 24 
109 137 193 193 192 191 189 187 186 183 178 171 161 149 134 123 110 100 90 88 94 107 126 146 161 171 178 181 182 180 177 173 171 171 173 174 172 162 149 141 133 131 128 134 134 133 133 128 122 113 114 117 114 111 108 108 97 81 62 47 35 30 30 31 
113 138 188 186 185 184 182 179 175 169 162 155 149 142 132 121 111 104 100 100 104 116 134 153 166 174 180 184 184 183 181 178 176 175 178 180 179 172 162 151 139 135 135 141 143 144 146 143 133 124 122 120 114 108 110 110 105 91 73 56 44 40 41 42 
114 136 181 177 175 175 173 169 161 152 143 137 134 129 120 110 100 97 96 98 100 110 130 151 165 173 178 183 185 184 182 181 178 178 180 183 183 180 172 160 143 135 136 144 147 150 153 150 142 135 135 127 118 107 108 105 102 92 81 68 60 56 51 48 
107 129 174 167 164 163 160 154 145 137 130 126 121 113 104 97 89 87 86 90 92 100 118 139 155 165 173 179 181 181 180 179 177 177 179 183 185 185 180 169 149 137 137 147 152 156 157 154 147 144 146 138 127 114 111 103 99 93 89 84 78 70 57 49 
100 122 166 158 153 149 144 137 131 127 124 119 111 100 91 88 82 79 77 82 87 96 110 127 141 152 163 171 175 175 174 173 173 174 177 180 184 188 187 180 161 147 145 155 163 166 163 158 153 151 153 146 138 129 124 115 108 103 104 102 94 79 60 50 
98 119 159 150 142 136 130 123 120 118 116 109 102 93 85 80 75 71 68 75 85 97 110 121 131 142 154 164 169 169 168 167 168 170 173 177 183 190 193 191 177 162 157 165 174 175 169 165 161 159 156 152 147 144 140 134 126 120 120 115 104 86 66 55 
95 112 145 136 129 123 119 115 113 108 102 96 92 88 82 77 73 70 72 79 89 101 113 120 127 136 149 161 166 168 165 163 163 165 169 172 179 189 196 198 191 180 175 177 183 184 180 177 174 171 165 160 156 158 157 154 146 138 132 122 108 91 73 63 
88 103 133 125 118 113 111 111 109 99 91 85 85 85 82 76 73 72 79 87 96 106 116 122 129 137 151 164 168 173 169 167 163 164 166 169 176 186 197 203 202 196 191 190 192 193 191 190 187 183 175 169 165 167 168 167 161 152 142 130 118 103 84 73 
77 90 117 114 109 105 105 105 102 91 84 81 81 80 80 79 80 81 92 102 108 115 122 126 134 142 158 169 173 179 176 175 169 169 169 169 174 184 196 206 210 209 207 204 204 205 204 202 198 193 186 179 173 171 172 174 171 165 156 149 141 128 106 94 
75 83 102 108 107 103 100 96 91 83 79 77 76 77 80 83 87 90 98 107 117 125 131 134 140 149 164 175 180 185 185 186 182 180 178 177 177 183 195 207 215 217 216 214 213 213 212 209 205 200 194 185 175 168 167 172 175 174 170 169 168 159 138 125 
82 82 84 97 104 102 95 86 79 73 72 73 73 76 81 89 98 102 106 113 124 135 141 141 143 151 165 176 183 189 192 195 193 192 190 188 185 185 193 205 216 221 221 220 220 219 217 213 208 204 198 189 176 163 158 164 174 179 180 183 185 182 169 160 
97 86 69 84 95 95 86 77 71 68 69 70 74 81 90 99 108 112 114 117 128 142 147 143 141 146 160 171 182 190 197 200 201 201 201 198 193 190 194 203 214 221 223 223 223 222 218 214 210 204 197 187 174 158 150 155 168 178 182 185 188 189 186 183 
112 93 64 75 84 83 75 68 67 70 71 72 76 87 100 109 112 115 115 119 131 147 153 145 138 139 151 162 176 187 198 202 204 204 205 203 199 195 196 203 213 220 223 225 225 223 220 216 210 202 191 180 169 154 145 149 161 171 175 174 173 175 178 180 
119 101 70 77 81 76 68 62 66 73 78 76 77 85 97 108 107 110 110 121 136 153 160 151 139 135 142 150 167 180 197 201 205 205 206 204 201 197 197 203 212 219 223 226 227 225 221 217 212 201 185 172 161 150 141 143 153 162 161 153 144 140 144 147 
121 109 86 89 85 77 72 67 71 76 85 84 82 78 82 90 92 97 101 118 138 159 170 164 151 140 138 140 155 172 191 198 204 204 205 202 197 193 195 203 212 219 224 227 228 226 223 219 213 201 182 166 155 146 141 140 145 142 130 109 94 84 89 92 
110 105 91 89 80 74 73 71 75 79 89 90 87 75 70 71 77 85 94 113 137 160 174 175 166 155 143 136 144 162 183 192 197 196 196 192 186 183 189 201 212 218 224 228 229 228 225 221 215 204 184 166 154 149 144 139 132 111 88 62 49 41 46 48 
87 88 83 75 67 65 70 72 76 77 86 89 91 78 70 64 72 78 90 106 128 151 168 177 177 171 155 139 134 147 165 175 180 180 181 177 170 168 179 197 211 218 224 229 230 229 227 224 218 209 190 172 160 156 152 137 111 74 48 30 28 25 31 33 
63 66 67 61 58 60 65 69 78 83 92 93 91 81 76 70 72 77 90 103 118 135 150 161 167 170 162 144 128 128 139 148 154 157 160 157 152 153 167 190 207 217 223 228 230 230 229 226 222 214 199 182 171 168 159 130 87 48 39 42 46 38 35 36 
49 53 58 58 60 65 69 70 79 86 93 89 82 75 75 74 72 78 92 105 113 121 131 139 146 155 159 149 129 114 112 119 129 137 142 142 138 141 157 182 203 215 222 228 230 230 229 227 224 220 208 195 184 180 165 120 71 45 63 82 79 57 42 39 
46 50 54 60 64 68 70 70 79 88 96 90 80 77 80 86 83 89 100 114 119 120 122 124 129 140 149 149 135 115 103 104 115 127 133 135 134 137 151 173 195 211 221 227 230 231 230 228 226 223 215 205 195 190 169 115 70 58 94 111 96 66 45 41 
49 52 54 62 66 66 67 68 77 85 89 86 77 77 82 91 93 101 112 125 131 130 125 124 126 135 139 143 139 123 108 106 114 128 134 139 140 142 149 164 185 205 218 225 229 230 231 230 227 224 219 212 203 197 175 120 81 73 105 108 84 59 45 46 
54 56 58 68 71 68 65 70 81 89 89 89 83 88 91 100 103 112 122 134 143 142 134 131 129 133 129 131 131 123 113 112 119 132 140 147 152 153 154 160 177 197 212 220 225 228 230 230 228 225 221 217 209 203 184 134 99 83 104 97 69 51 46 55 
61 63 66 78 82 78 71 77 89 98 92 90 86 93 97 101 105 119 134 145 148 145 137 128 116 110 103 103 101 97 96 104 116 133 144 157 164 166 165 163 173 189 205 215 221 225 227 228 227 225 222 220 215 210 195 155 116 92 98 94 74 58 54 61 
70 74 77 88 89 85 78 87 94 102 95 94 95 102 107 109 115 128 141 146 143 135 120 102 82 70 62 60 58 56 60 72 93 118 140 158 169 174 175 173 175 182 193 204 212 218 224 226 226 225 223 222 218 215 206 180 143 113 104 104 94 82 73 73 
74 77 75 83 79 79 79 92 96 103 98 100 104 111 118 122 132 140 145 141 128 107 83 59 39 28 23 22 20 20 26 37 58 88 121 151 169 177 181 180 177 178 181 193 203 213 221 224 226 225 223 221 218 216 212 200 170 140 117 116 121 122 118 113 
98 95 78 80 72 74 82 98 100 105 101 108 114 119 127 135 145 147 139 122 98 69 42 24 14 11 9 8 6 4 7 11 24 48 84 123 155 173 181 185 182 179 175 183 194 208 219 223 226 226 224 222 218 215 213 210 198 178 157 150 154 159 160 158 
114 102 70 69 66 71 82 94 96 101 102 111 118 126 134 142 148 142 123 95 63 35 22 21 27 36 43 41 29 18 14 12 12 20 43 80 120 153 173 183 186 186 178 179 187 203 216 221 226 226 226 224 222 218 216 214 211 203 192 187 190 197 202 204 
141 119 73 71 75 82 89 91 91 96 103 114 121 129 137 142 140 123 95 61 33 21 30 48 64 79 87 81 56 33 24 19 14 10 17 38 72 109 141 166 182 189 181 176 181 196 211 219 226 228 228 227 227 225 222 220 222 223 220 217 216 218 220 221 
154 127 76 72 80 85 88 83 84 93 105 117 122 128 137 138 125 95 60 32 23 33 56 82 102 117 119 105 75 50 40 36 29 17 12 16 34 62 95 128 154 169 167 165 174 192 209 219 227 230 230 230 231 230 228 227 226 223 219 218 221 226 230 231 
164 135 81 76 85 90 96 92 92 99 106 115 119 126 135 130 105 66 35 23 35 59 83 104 120 126 115 93 68 54 50 51 46 32 20 14 21 39 62 85 104 121 132 145 168 194 212 221 228 231 233 233 232 230 229 229 227 223 218 216 217 222 228 231 
163 137 86 84 90 94 100 97 98 102 106 108 111 121 128 115 82 43 28 37 63 88 104 117 127 124 104 75 61 57 66 70 66 52 35 27 32 43 51 55 60 71 90 123 165 199 217 224 229 233 234 234 231 228 227 226 222 220 215 212 209 211 218 222 
163 140 95 95 98 102 108 109 110 109 109 108 113 121 119 95 62 35 39 63 92 111 118 122 126 120 103 72 63 66 84 88 86 72 57 52 59 66 61 50 42 45 64 106 160 202 221 227 228 230 231 231 229 226 224 223 219 219 216 212 204 201 206 211 
167 147 107 107 107 108 110 111 114 116 118 117 119 121 113 96 73 51 54 79 109 126 128 127 125 122 113 87 80 79 98 104 102 94 88 94 99 94 80 65 56 53 67 107 162 204 223 227 226 227 226 227 226 224 222 220 217 215 212 207 199 191 191 193 
178 160 123 116 110 108 112 117 122 125 129 130 129 125 119 116 105 86 75 86 109 126 131 131 129 128 124 108 102 97 110 117 123 126 130 136 134 123 109 98 91 86 95 128 174 210 225 225 222 219 218 219 219 218 216 214 213 208 205 198 192 182 177 176 
178 162 127 121 114 112 116 119 121 123 125 123 122 125 134 148 148 132 111 105 109 117 123 127 130 132 134 128 127 124 134 141 147 149 150 154 153 149 143 138 133 131 139 166 199 221 227 223 218 212 209 207 208 207 207 207 208 200 197 188 184 173 164 159 
178 164 132 122 112 110 115 117 114 109 108 109 118 134 152 166 168 162 149 139 132 133 140 147 151 151 152 147 145 140 142 140 144 145 147 151 159 166 168 170 171 175 186 205 222 229 228 223 217 206 197 194 194 196 198 200 201 192 186 177 173 161 149 140 
168 156 131 128 122 115 109 99 92 89 97 112 135 156 167 167 166 169 169 165 155 150 150 149 148 144 145 143 140 134 131 128 132 135 141 149 163 174 182 190 199 208 219 229 234 232 228 224 215 198 184 179 182 186 189 189 187 178 172 163 157 142 129 118 
162 150 126 119 110 98 89 84 82 89 106 132 157 172 174 167 158 159 160 162 160 159 157 149 142 133 130 127 120 111 106 110 119 129 141 154 169 182 195 206 217 226 234 237 236 233 230 224 209 185 166 162 168 173 173 168 163 157 154 147 138 120 108 98 
154 142 119 113 102 86 72 72 83 105 132 158 171 172 166 156 148 144 142 137 136 130 129 119 114 105 101 99 98 96 98 112 130 145 155 164 175 189 207 221 231 235 237 237 236 235 234 228 214 191 169 154 148 146 140 128 125 128 133 128 118 102 97 91 
148 131 99 86 75 68 70 88 110 132 147 157 156 152 149 144 137 128 122 111 110 103 106 98 102 103 106 101 95 95 104 120 136 149 160 173 191 210 225 233 236 236 237 236 237 237 237 233 221 206 187 168 149 132 117 104 105 113 119 113 102 91 94 94 
137 117 79 69 66 70 83 103 122 136 143 143 138 134 129 123 121 110 105 90 93 86 92 89 97 100 104 101 98 101 112 127 141 154 167 185 205 222 231 235 235 234 234 234 235 235 236 237 233 229 217 198 171 142 119 103 102 107 110 101 90 86 97 104 
128 106 63 53 55 70 91 111 121 125 124 122 120 120 119 114 108 96 91 81 85 81 88 87 93 98 105 105 101 104 116 128 142 157 178 198 217 229 233 232 232 232 233 233 233 233 235 236 235 233 229 220 202 176 151 130 118 110 105 94 84 83 99 110 
115 94 52 46 51 70 91 105 108 107 107 108 110 113 114 112 108 100 97 92 94 90 94 90 84 81 84 90 94 104 119 131 142 157 179 202 219 227 231 232 233 234 234 233 233 233 234 234 235 231 228 223 213 198 178 155 131 112 99 90 82 84 101 113 
102 84 48 47 57 76 94 100 98 96 97 100 104 107 107 107 104 99 97 94 94 90 89 82 81 80 84 85 89 98 108 116 129 152 181 207 222 228 230 233 233 233 231 231 231 230 229 228 228 224 220 215 210 202 189 169 140 115 97 87 81 85 101 112 
94 79 52 57 73 92 104 104 99 94 93 94 96 96 93 90 90 89 88 86 87 86 87 85 91 89 86 81 88 99 105 112 130 159 191 216 229 231 229 228 226 224 223 223 222 221 219 217 216 213 210 205 201 195 184 166 141 118 98 85 78 82 96 105 
87 76 58 76 97 112 115 108 102 96 92 87 85 81 74 69 69 69 69 67 68 73 83 92 99 93 84 81 91 99 102 111 138 172 202 219 227 227 224 221 217 214 213 212 211 209 208 207 205 205 202 197 189 180 167 152 132 117 97 82 74 78 89 93 
82 76 69 92 111 119 119 113 106 98 90 83 77 72 68 68 67 68 68 71 75 83 94 102 99 89 79 83 94 101 105 120 155 188 211 219 221 221 219 215 212 209 210 209 209 209 207 204 201 198 192 183 173 162 149 135 120 110 91 76 68 71 78 80 
72 71 70 97 114 119 117 112 104 99 94 90 85 82 83 88 89 89 87 88 91 94 94 86 69 62 67 83 94 100 111 133 165 192 208 213 215 216 217 216 214 211 209 208 206 204 201 196 191 185 179 169 158 147 135 125 112 102 83 67 60 61 63 62 
62 65 72 96 113 120 119 114 106 102 99 99 97 99 104 110 110 105 99 96 96 94 83 68 57 60 73 85 93 104 121 142 167 188 203 210 213 213 211 209 206 201 199 197 196 193 188 182 175 168 161 153 145 137 128 116 100 84 65 51 46 46 45 42 
54 59 72 96 116 126 125 118 113 112 112 112 112 114 118 120 117 110 101 95 90 81 66 51 48 58 74 87 100 114 129 143 160 177 193 201 204 202 198 194 189 184 181 180 178 174 169 165 159 153 148 142 134 127 116 101 80 59 40 31 30 31 30 26 
52 60 78 101 121 129 128 124 123 123 121 118 116 116 117 116 111 102 92 84 74 61 48 44 54 69 84 95 107 117 123 129 141 158 174 184 188 187 183 180 177 172 170 168 165 160 156 154 150 143 136 128 120 109 94 73 49 30 16 13 15 19 21 21 
50 60 82 103 119 125 124 124 125 124 119 112 107 104 101 98 90 82 72 65 56 44 39 46 62 79 93 104 112 114 113 114 124 141 159 170 176 178 177 177 175 170 165 161 155 149 146 144 141 133 122 110 97 82 63 42 22 10 4 6 10 14 20 24 
43 54 78 100 115 118 117 117 116 111 101 91 84 80 75 70 64 58 51 49 47 46 49 58 70 85 98 108 111 109 107 108 118 134 152 164 171 175 177 178 174 166 157 150 143 136 132 129 123 115 105 90 70 51 34 21 11 6 7 11 13 16 23 28 
36 48 72 98 113 115 112 109 100 89 74 63 56 51 48 47 47 47 46 48 51 57 65 73 82 93 103 107 104 101 103 111 122 135 148 159 167 172 174 173 165 154 143 138 131 124 115 107 95 91 87 76 50 26 16 13 12 10 14 18 21 22 26 31 
43 56 80 104 115 115 108 99 84 69 54 44 37 35 38 44 52 58 63 68 72 76 79 82 88 95 99 101 100 100 107 117 126 134 142 153 157 161 163 160 150 140 130 125 115 103 90 75 61 61 74 70 46 16 10 12 16 16 20 25 28 27 28 31 
57 70 96 112 117 111 100 86 70 55 42 34 33 37 45 55 66 75 80 82 82 82 83 88 97 100 99 97 95 97 108 118 126 126 130 139 145 151 146 142 130 125 115 106 93 77 64 46 33 35 60 64 48 17 11 12 17 19 25 29 31 29 29 29 
67 82 108 119 118 107 91 73 56 42 33 29 33 43 54 64 73 80 86 90 91 89 89 94 101 100 94 90 91 98 111 112 118 116 120 126 127 134 125 117 107 102 93 78 64 47 41 27 20 19 45 51 44 18 15 16 19 23 28 32 32 30 29 29 
71 85 110 116 110 95 76 57 43 34 29 29 35 46 58 69 77 84 89 94 95 93 92 94 98 95 90 85 86 97 104 106 105 109 109 111 112 113 101 89 86 78 71 52 45 32 31 23 17 15 31 34 33 17 19 21 24 27 31 33 33 30 31 32 
76 88 109 108 96 78 59 43 33 29 30 32 38 47 60 72 82 87 91 94 96 95 92 91 92 91 87 81 82 92 93 99 94 101 99 102 104 90 77 64 72 61 55 36 36 28 28 26 22 20 26 25 27 20 25 28 32 34 35 36 35 33 34 35 
81 90 106 96 80 61 45 33 28 28 33 38 46 55 67 79 87 89 90 92 95 96 93 90 88 87 83 76 80 85 84 89 90 93 95 99 103 75 56 47 63 51 45 29 33 34 33 34 31 31 32 28 30 29 33 35 38 40 41 41 40 38 39 40 
85 91 100 83 65 48 36 29 28 32 40 48 57 69 80 87 90 89 89 92 96 97 94 91 88 85 78 74 81 80 81 81 95 90 101 102 101 64 43 39 58 44 39 25 32 38 38 42 41 42 41 39 40 39 41 41 43 45 47 47 46 44 45 46 
85 87 89 69 52 41 35 32 35 42 52 61 69 78 86 91 91 90 90 94 97 97 94 92 88 83 74 79 83 78 79 83 101 87 108 105 99 59 44 41 58 44 39 21 31 37 42 46 49 51 50 50 49 48 47 47 49 50 52 52 51 50 51 51 
79 77 72 54 42 38 39 42 49 58 68 74 78 83 88 92 92 93 96 99 100 96 93 93 90 85 79 89 90 84 88 97 101 84 105 105 98 59 56 52 70 58 48 21 25 31 39 45 53 57 58 58 55 54 54 54 55 56 58 57 57 56 56 56 
69 64 54 42 38 40 47 54 64 73 81 84 84 85 87 92 95 98 101 104 102 97 94 96 94 91 90 101 99 94 100 113 104 87 103 101 96 59 62 63 83 77 60 27 23 27 35 38 46 53 62 65 64 63 61 61 61 62 63 64 64 63 63 62 
60 54 43 41 45 51 60 69 77 82 84 83 83 83 86 91 97 102 105 105 102 99 98 102 103 101 108 110 110 108 116 127 110 100 109 106 96 64 71 77 96 92 72 40 28 32 36 35 38 47 62 70 75 75 72 69 65 67 68 70 72 71 72 72 
60 54 43 50 58 65 72 80 83 82 78 77 75 75 80 89 98 102 103 101 99 99 102 107 111 114 123 123 118 121 128 138 121 115 124 119 107 81 85 94 105 103 88 68 58 59 60 55 50 54 68 78 86 91 90 85 76 74 72 74 77 79 83 85 
71 64 53 62 70 76 80 85 82 77 71 70 69 71 78 88 97 101 99 96 95 98 104 111 117 128 136 136 127 133 142 147 131 126 135 133 122 104 107 116 120 118 109 101 97 97 97 90 83 82 86 89 97 110 114 108 94 87 81 79 80 86 96 101 
88 81 67 72 77 81 83 85 80 74 69 70 70 74 81 91 97 99 95 93 93 99 107 114 123 139 145 145 135 144 153 152 139 133 143 142 133 120 122 129 132 131 126 126 127 127 124 120 117 113 109 102 108 124 133 126 111 103 96 87 85 92 105 112 
98 91 75 77 80 83 85 85 80 76 73 74 76 80 86 93 97 97 95 94 96 103 111 119 130 147 151 149 143 152 162 156 146 142 152 150 141 128 129 133 136 134 131 133 134 134 132 133 134 130 124 117 120 132 140 132 120 112 108 97 92 96 107 113 
94 86 71 75 78 81 84 83 80 78 77 77 79 84 90 94 96 96 97 98 102 108 116 124 137 151 155 151 151 159 168 159 151 151 162 160 151 135 136 135 136 131 128 127 126 125 127 134 139 135 131 127 129 136 140 131 119 110 111 104 99 99 103 107 
84 77 63 67 71 76 80 82 82 80 78 78 81 85 89 92 95 98 101 105 109 114 120 128 143 154 159 151 158 166 173 164 155 160 168 169 159 146 144 141 140 136 134 131 127 124 127 134 138 134 132 133 138 142 140 129 114 103 103 100 97 94 91 90 
68 64 57 62 67 71 75 77 79 77 75 75 78 83 86 91 96 101 105 109 114 119 125 132 148 156 161 152 162 170 175 165 156 163 169 172 164 155 152 150 148 144 142 140 136 133 133 136 134 129 127 133 143 150 146 134 118 106 101 96 91 86 80 76 
63 62 61 66 70 73 75 76 75 71 68 68 73 78 82 89 97 104 108 112 118 124 130 136 151 157 160 151 163 172 174 164 155 165 168 175 168 165 159 156 154 154 153 151 148 146 144 143 139 134 133 139 149 153 148 137 126 115 104 92 84 78 72 68 
63 64 68 72 74 75 73 70 68 65 63 65 70 76 82 89 96 103 106 111 118 126 132 139 150 154 155 149 162 171 172 161 156 165 169 175 170 170 163 160 159 159 158 156 155 155 155 154 151 148 146 150 154 156 151 143 134 124 110 96 86 80 76 74 
75 76 77 78 77 76 75 73 72 70 68 71 75 81 85 90 95 101 105 110 118 125 132 140 147 149 147 146 161 170 171 160 158 166 168 172 169 172 166 163 162 162 161 160 159 160 161 161 162 162 163 164 163 159 150 141 133 123 111 99 91 86 84 84 
88 88 88 86 84 83 83 83 83 82 81 81 83 86 89 93 96 101 107 114 119 124 129 138 143 144 139 143 160 168 169 158 157 164 165 169 167 171 166 163 162 163 164 164 164 163 163 164 167 169 171 170 167 160 151 141 132 123 112 102 96 93 93 93 
100 99 98 97 96 95 94 94 94 93 92 90 89 90 94 98 101 106 112 119 123 124 128 137 139 140 134 140 157 164 163 153 154 161 162 166 163 167 163 161 161 163 166 167 166 166 166 168 170 172 172 169 164 159 153 146 139 129 118 108 101 99 100 101 
108 108 106 106 105 104 102 100 99 99 98 96 96 97 101 105 109 114 119 123 126 126 128 134 135 136 130 137 154 159 158 147 150 159 160 162 154 157 157 159 161 163 165 166 166 167 168 170 173 175 174 169 163 159 155 150 143 135 125 114 107 104 105 106 
115 115 113 112 111 109 107 105 105 105 106 106 107 109 113 116 118 121 124 126 127 127 129 134 134 133 126 134 148 152 149 140 143 153 153 153 145 148 152 157 161 160 161 160 161 164 167 169 172 173 173 168 163 160 156 151 143 135 126 118 112 110 110 110 
119 120 121 119 117 115 114 114 114 114 116 118 120 122 124 125 126 126 127 128 129 128 130 135 134 131 124 131 143 146 141 132 134 144 143 144 138 141 149 154 158 155 155 156 157 159 161 162 165 167 169 166 164 160 153 145 137 130 124 119 115 112 112 111 
124 127 132 129 127 126 126 127 128 128 129 130 131 132 132 133 132 132 131 131 131 130 132 137 136 131 123 129 138 139 131 123 124 133 134 136 134 137 145 146 151 149 151 151 150 149 150 153 157 160 161 160 159 156 150 142 135 129 123 119 116 114 113 112 
129 134 145 142 140 138 138 138 139 140 140 140 139 139 139 138 137 136 135 135 134 133 133 137 136 131 123 129 137 136 127 117 118 127 129 130 128 131 137 137 141 142 146 145 143 141 141 145 148 151 153 155 156 154 149 142 134 128 123 119 116 113 111 111 
134 142 157 154 151 149 147 147 148 149 150 148 147 145 143 143 142 141 139 138 137 136 136 138 136 131 125 131 138 136 125 115 116 123 125 125 122 124 129 129 132 133 137 135 133 133 134 137 140 142 145 149 152 151 146 139 131 125 119 116 113 111 110 109 
138 147 167 164 160 158 156 155 156 156 156 154 151 148 146 145 145 144 143 141 140 139 138 139 136 133 128 135 140 137 127 117 117 122 123 121 116 116 120 122 124 125 125 123 122 123 126 127 129 131 136 140 142 140 136 130 123 118 113 111 110 109 108 108 
140 151 173 171 168 165 163 162 161 161 160 156 153 150 148 148 148 146 145 143 142 141 140 140 137 135 132 138 143 139 129 119 118 121 122 119 113 111 114 117 118 118 116 113 113 115 116 115 116 119 124 127 128 126 122 118 114 111 108 107 107 108 108 107 
142 154 178 176 173 170 167 165 164 163 161 158 155 152 151 150 150 148 145 144 143 142 141 141 139 139 137 143 145 141 131 122 119 120 122 120 114 110 111 115 115 115 111 109 109 110 109 107 108 110 115 117 116 114 111 110 109 107 106 106 106 107 107 107 
145 158 182 180 177 174 171 169 167 165 163 160 158 156 154 153 151 149 146 144 144 143 142 142 142 143 141 145 146 142 134 125 121 122 124 124 118 113 112 114 113 113 111 110 110 109 108 106 106 108 110 111 110 108 107 107 107 107 107 107 107 108 107 107 
147 160 186 182 179 176 174 171 169 166 164 163 161 158 156 154 152 149 147 146 146 145 143 144 146 146 144 145 146 143 136 128 124 124 127 127 122 117 114 114 113 113 112 112 112 111 110 108 108 109 110 109 109 108 107 107 108 108 108 109 109 108 108 107 
149 163 189 185 182 179 177 174 171 168 166 165 163 160 157 155 153 150 149 148 148 147 145 147 149 148 145 144 145 143 138 131 127 127 129 130 126 121 117 115 114 114 115 115 114 113 112 111 110 110 110 110 110 110 110 110 110 110 111 110 110 109 108 108 
151 165 192 188 184 181 178 175 172 169 167 166 164 161 158 155 154 153 152 151 150 149 148 150 151 149 145 144 145 144 139 133 129 129 131 132 129 124 120 118 117 117 118 118 117 116 114 113 112 112 113 113 113 113 113 113 113 113 112 111 110 109 109 109 
153 167 194 190 187 184 180 177 173 171 168 167 164 161 158 156 155 155 155 153 152 151 151 152 152 149 146 144 145 144 140 135 132 132 133 134 132 129 125 122 121 121 121 121 120 118 117 115 115 115 115 115 115 115 116 116 116 115 113 112 110 109 109 109 
154 168 196 192 189 186 183 180 175 172 169 167 164 161 159 157 157 157 157 155 153 152 153 153 152 149 146 145 146 146 142 138 134 133 134 136 135 133 128 125 123 123 123 123 122 121 119 118 118 118 118 118 118 118 118 118 117 116 114 112 110 109 108 108 
154 169 198 195 192 189 186 182 177 173 170 168 165 163 161 160 160 159 158 156 153 153 154 154 152 149 146 146 148 148 144 139 136 134 135 136 138 136 131 127 125 125 125 125 124 124 123 122 121 121 121 121 120 120 119 119 118 116 114 113 111 110 109 108 
155 170 200 197 194 191 187 182 178 174 171 169 167 165 164 164 163 162 160 157 154 154 156 155 152 148 146 147 149 150 146 140 137 135 135 137 139 138 133 129 127 126 126 127 127 127 126 126 125 125 125 125 124 123 122 121 119 117 115 115 113 112 110 109 
156 172 202 199 195 192 187 183 179 176 174 172 170 168 167 167 165 164 162 160 158 157 157 156 152 148 147 149 152 152 147 142 138 136 137 138 140 139 135 132 130 129 128 129 129 129 130 130 129 129 129 128 126 125 123 121 120 119 117 117 116 115 113 111 
157 172 203 200 196 193 189 185 181 179 177 174 172 171 170 168 166 165 164 163 161 160 159 156 152 150 149 152 155 154 150 144 140 139 139 139 140 140 138 137 135 133 132 132 132 132 132 132 132 132 132 131 129 127 124 122 121 120 120 120 119 118 116 115 
160 175 204 201 198 195 191 188 184 182 179 177 175 174 172 170 168 167 167 167 166 163 160 157 154 153 153 156 158 157 153 148 144 143 142 142 142 142 142 143 141 139 137 136 135 134 134 135 135 135 134 133 132 129 126 124 123 123 124 123 123 121 120 119 
165 179 207 204 200 197 194 191 187 184 182 179 178 176 174 172 170 170 170 169 168 165 162 160 157 157 158 159 160 159 156 153 149 147 145 144 144 144 145 146 145 144 141 140 139 137 137 137 137 137 137 136 134 132 130 128 126 126 127 128 126 124 122 122 
168 182 209 206 203 200 197 194 190 187 184 182 180 179 177 174 173 173 173 172 170 167 164 162 161 161 162 162 162 161 160 158 155 153 150 148 147 147 147 149 148 147 145 143 142 141 140 140 140 139 139 138 137 136 134 133 131 131 131 131 129 127 125 124 
169 183 211 208 205 202 200 197 193 190 187 185 183 181 180 177 176 175 174 173 171 169 166 164 164 165 166 166 165 165 164 163 161 159 156 154 151 150 150 150 150 149 148 146 145 144 143 143 143 142 141 140 139 139 138 137 136 135 134 134 133 132 129 128 
169 184 213 210 208 205 203 200 196 193 190 188 186 185 183 181 179 177 176 175 173 171 169 168 168 169 170 169 169 169 168 167 166 164 162 159 157 155 154 154 153 153 151 150 148 147 146 146 145 144 143 143 142 142 142 142 142 141 139 137 136 135 133 132 
172 187 215 213 210 208 206 203 200 197 194 192 190 189 187 184 182 179 177 176 175 173 172 172 172 172 173 173 173 173 172 172 170 168 166 164 163 161 159 158 158 157 156 154 152 150 149 148 147 147 146 145 145 145 146 146 147 147 145 142 138 136 134 133 
176 190 218 215 213 210 208 205 202 200 198 196 194 192 190 188 185 183 181 180 178 177 176 175 175 176 177 177 178 178 177 176 174 172 169 168 167 165 164 162 161 160 158 156 154 152 151 150 150 150 150 149 149 149 150 151 152 152 151 147 142 138 134 132 
176 190 219 217 214 212 209 207 204 202 200 198 197 195 193 191 189 186 184 183 182 180 179 179 179 179 180 181 181 182 181 180 177 175 172 170 169 168 166 164 162 160 159 157 155 153 152 152 153 154 154 154 153 153 154 155 156 157 156 153 148 143 137 134 
175 190 220 218 215 213 210 208 206 204 202 200 199 197 195 193 191 190 189 187 186 184 183 182 182 182 184 185 185 185 185 184 181 178 175 172 171 169 168 165 162 160 158 157 156 155 154 154 156 158 159 159 159 159 159 159 160 160 160 159 157 153 146 141 
176 191 221 219 216 214 211 209 207 205 203 202 200 198 196 195 193 192 191 190 189 187 186 185 185 185 187 188 188 188 187 186 183 181 177 175 173 171 169 167 164 162 160 159 158 158 157 157 159 161 163 163 163 163 163 163 163 163 163 164 164 161 154 151 
181 194 221 220 217 215 212 211 209 207 205 203 202 200 198 197 195 194 193 192 191 190 188 188 188 188 189 190 190 190 189 188 185 183 180 177 175 174 172 169 166 165 163 162 161 161 161 161 163 165 166 167 167 167 167 167 166 166 165 166 167 165 160 157 
186 198 222 220 218 216 214 212 210 208 207 205 204 202 200 199 197 196 195 194 193 192 191 190 190 190 191 191 192 191 190 188 186 184 181 179 177 176 174 172 169 167 166 166 165 165 165 165 166 167 169 170 171 171 171 171 169 168 167 166 166 165 162 160 
188 200 223 221 219 217 215 214 212 210 208 207 205 203 202 200 199 198 197 197 196 195 194 193 192 192 192 193 193 192 191 189 187 184 181 179 178 177 176 174 172 170 169 169 168 168 168 169 169 170 171 172 174 175 174 174 172 170 168 167 165 163 161 159 
189 200 223 222 220 218 216 215 213 212 210 208 207 205 203 202 201 200 200 199 198 198 197 197 195 194 193 194 194 193 191 190 187 184 181 179 179 178 177 176 174 172 171 171 170 170 171 171 172 172 173 175 177 178 177 176 174 172 170 169 167 164 160 157 
188 200 224 222 221 219 217 215 214 212 211 209 207 205 203 202 202 201 201 201 200 199 199 198 197 195 194 195 195 194 192 190 187 184 180 179 179 178 178 176 175 173 172 172 172 172 172 173 173 173 174 176 178 179 179 178 176 174 172 170 168 165 160 157 
